<?xml version="1.0" encoding="utf-8"?>
<!-- Generator: Adobe Illustrator 25.4.1, SVG Export Plug-In . SVG Version: 6.00 Build 0)  -->
<svg version="1.1" id="Capa_1" xmlns="http://www.w3.org/2000/svg" xmlns:xlink="http://www.w3.org/1999/xlink" x="0px" y="0px"
	 viewBox="0 0 630.65 199.45" style="enable-background:new 0 0 630.65 199.45;" xml:space="preserve">
<style type="text/css">
	.st0{fill:#FFFFFF;}
	.st1{fill-rule:evenodd;clip-rule:evenodd;fill:#FFFFFF;}
	.st2{fill:#E2341C;}
	.st3{fill-rule:evenodd;clip-rule:evenodd;}
</style>
<g>
	<path d="M98.97,112.62H86.36c-3,0-5.43-2.43-5.43-5.43v-7.76h18.04c2.65,0,5.51,2.52,5.51,6.54
		C104.48,110.03,101.62,112.62,98.97,112.62 M99.82,86.28h-18.9V70.95H64.86v36.6c0,10.91,8.85,19.76,19.76,19.76h15.01
		c13.49,0,23.91-13.01,19.46-27.16C116.47,91.82,108.56,86.28,99.82,86.28"/>
	<path d="M158,112.62h-12.61c-3,0-5.43-2.43-5.43-5.43v-7.76H158c2.65,0,5.51,2.52,5.51,6.54
		C163.51,110.03,160.65,112.62,158,112.62 M158.85,86.28h-18.9V70.95h-16.07v36.6c0,10.91,8.85,19.76,19.76,19.76h15.01
		c13.49,0,23.91-13.01,19.46-27.16C175.5,91.82,167.59,86.28,158.85,86.28"/>
	<polygon points="234.67,127.32 233.56,124.92 220.5,99.49 233.01,86.4 210.76,86.4 210.75,86.41 200.52,98.07 200.51,70.96 
		183.8,70.96 183.8,127.31 183.8,127.32 200.51,127.32 200.51,127.31 200.51,118.75 209.63,107.63 219.18,126.77 219.57,127.32 
		220.17,127.32 232.97,127.32 	"/>
	<path d="M293.51,102.4h-33.58v10.23h33.58V102.4z M293.51,86.26h-33.58v10.23h33.58V86.26z M244.53,99.73
		c0-17.76,14.41-32.16,32.19-32.16c17.78,0,32.19,14.4,32.19,32.16c0,17.76-14.41,32.16-32.19,32.16
		C258.95,131.89,244.53,117.49,244.53,99.73"/>
	<g>
		<g>
			<path d="M321.75,70.92h10.51c2.5,0,4.39,0.6,5.69,1.8c1.3,1.2,1.95,2.93,1.95,5.18c0,1.37-0.25,2.5-0.74,3.4
				c-0.49,0.9-1.24,1.66-2.25,2.29c1.01,0.19,1.87,0.49,2.57,0.88c0.71,0.4,1.28,0.88,1.73,1.46c0.44,0.58,0.76,1.22,0.95,1.94
				c0.19,0.72,0.29,1.49,0.29,2.31c0,1.27-0.22,2.4-0.67,3.38c-0.44,0.98-1.07,1.81-1.87,2.48c-0.8,0.67-1.78,1.18-2.93,1.51
				c-1.15,0.34-2.45,0.5-3.89,0.5h-11.34V70.92z M328.8,81.58h1.3c2.21,0,3.31-0.88,3.31-2.63c0-1.75-1.1-2.63-3.31-2.63h-1.3V81.58
				z M328.8,92.59h1.55c1.78,0,3.05-0.23,3.82-0.68c0.77-0.46,1.15-1.19,1.15-2.2c0-1.01-0.38-1.74-1.15-2.2
				c-0.77-0.46-2.04-0.68-3.82-0.68h-1.55V92.59z"/>
			<path d="M345.22,84.49c0-2.02,0.37-3.89,1.12-5.64c0.74-1.74,1.78-3.26,3.1-4.55c1.32-1.3,2.9-2.31,4.74-3.04
				c1.84-0.73,3.86-1.1,6.07-1.1c2.18,0,4.2,0.37,6.05,1.1c1.85,0.73,3.44,1.75,4.77,3.04c1.33,1.3,2.37,2.81,3.11,4.55
				c0.75,1.74,1.12,3.62,1.12,5.64c0,2.02-0.37,3.89-1.12,5.63c-0.74,1.74-1.78,3.26-3.11,4.56c-1.33,1.3-2.92,2.31-4.77,3.04
				c-1.85,0.73-3.87,1.1-6.05,1.1c-2.21,0-4.23-0.37-6.07-1.1c-1.84-0.73-3.42-1.75-4.74-3.04c-1.32-1.3-2.35-2.81-3.1-4.56
				C345.59,88.39,345.22,86.51,345.22,84.49z M352.6,84.49c0,1.08,0.2,2.08,0.61,2.99c0.41,0.91,0.96,1.7,1.66,2.38
				c0.7,0.67,1.51,1.19,2.43,1.57c0.92,0.37,1.9,0.56,2.93,0.56s2.01-0.19,2.94-0.56c0.92-0.37,1.74-0.89,2.45-1.57
				c0.71-0.67,1.27-1.46,1.68-2.38c0.41-0.91,0.61-1.91,0.61-2.99s-0.2-2.08-0.61-2.99c-0.41-0.91-0.97-1.7-1.68-2.38
				c-0.71-0.67-1.52-1.19-2.45-1.57c-0.92-0.37-1.9-0.56-2.94-0.56s-2.01,0.19-2.93,0.56s-1.73,0.89-2.43,1.57
				c-0.7,0.67-1.25,1.47-1.66,2.38C352.81,82.42,352.6,83.41,352.6,84.49z"/>
			<path d="M378.53,84.49c0-2.02,0.37-3.89,1.12-5.64c0.74-1.74,1.77-3.26,3.1-4.55s2.9-2.31,4.74-3.04c1.84-0.73,3.86-1.1,6.07-1.1
				c2.18,0,4.2,0.37,6.05,1.1s3.44,1.75,4.77,3.04s2.37,2.81,3.11,4.55c0.74,1.74,1.12,3.62,1.12,5.64c0,2.02-0.37,3.89-1.12,5.63
				c-0.74,1.74-1.78,3.26-3.11,4.56c-1.33,1.3-2.92,2.31-4.77,3.04c-1.85,0.73-3.87,1.1-6.05,1.1c-2.21,0-4.23-0.37-6.07-1.1
				c-1.84-0.73-3.42-1.75-4.74-3.04c-1.32-1.3-2.35-2.81-3.1-4.56C378.9,88.39,378.53,86.51,378.53,84.49z M385.91,84.49
				c0,1.08,0.2,2.08,0.61,2.99c0.41,0.91,0.96,1.7,1.66,2.38c0.7,0.67,1.51,1.19,2.43,1.57c0.92,0.37,1.9,0.56,2.93,0.56
				c1.03,0,2.01-0.19,2.94-0.56c0.92-0.37,1.74-0.89,2.45-1.57c0.71-0.67,1.27-1.46,1.68-2.38c0.41-0.91,0.61-1.91,0.61-2.99
				s-0.2-2.08-0.61-2.99c-0.41-0.91-0.97-1.7-1.68-2.38c-0.71-0.67-1.52-1.19-2.45-1.57c-0.93-0.37-1.9-0.56-2.94-0.56
				c-1.03,0-2.01,0.19-2.93,0.56s-1.73,0.89-2.43,1.57c-0.7,0.67-1.25,1.47-1.66,2.38C386.11,82.42,385.91,83.41,385.91,84.49z"/>
			<path d="M423.07,76.89v21.17h-7.06V76.89h-5.8v-5.98h18.65v5.98H423.07z"/>
			<path d="M451.3,79.99C449.66,78,447.65,77,445.25,77c-1.06,0-2.03,0.19-2.93,0.58c-0.9,0.38-1.67,0.91-2.32,1.57
				c-0.65,0.66-1.16,1.45-1.53,2.36c-0.37,0.91-0.56,1.9-0.56,2.95c0,1.08,0.19,2.08,0.56,2.99c0.37,0.91,0.89,1.7,1.55,2.38
				c0.66,0.67,1.43,1.2,2.32,1.58c0.89,0.38,1.85,0.58,2.88,0.58c2.26,0,4.28-0.96,6.08-2.88v8.35l-0.72,0.25
				c-1.08,0.38-2.09,0.67-3.02,0.85c-0.94,0.18-1.86,0.27-2.77,0.27c-1.87,0-3.67-0.35-5.38-1.06c-1.72-0.71-3.23-1.7-4.54-2.99
				c-1.31-1.28-2.36-2.81-3.15-4.57c-0.79-1.76-1.19-3.69-1.19-5.78c0-2.09,0.39-4,1.17-5.74c0.78-1.74,1.82-3.24,3.13-4.5
				c1.31-1.26,2.83-2.24,4.56-2.95c1.73-0.71,3.54-1.06,5.44-1.06c1.08,0,2.14,0.11,3.19,0.34c1.04,0.23,2.14,0.58,3.29,1.06V79.99z
				"/>
			<path d="M473.04,93.35h-10.08l-1.62,4.72h-7.53l10.33-27.15h7.71l10.33,27.15h-7.52L473.04,93.35z M471.17,87.98L468,78.95
				l-3.17,9.04H471.17z"/>
			<path d="M484.06,98.07l4.61-27.15h6.98l5.44,14.47l5.4-14.47h6.98l4.61,27.15h-7.02l-2.34-15.63l-6.41,15.63h-2.81l-6.08-15.63
				l-2.34,15.63H484.06z"/>
			<path d="M529.61,98.07h-7.06V70.92h11.24c3.05,0,5.38,0.79,7,2.38c1.62,1.59,2.43,3.82,2.43,6.7c0,2.88-0.81,5.11-2.43,6.7
				c-1.62,1.59-3.96,2.38-7,2.38h-4.18V98.07z M529.61,83.38h2.34c2.59,0,3.89-1.13,3.89-3.38c0-2.26-1.3-3.39-3.89-3.39h-2.34
				V83.38z"/>
			<path d="M561.87,77.87c-0.77-0.62-1.54-1.09-2.31-1.39c-0.77-0.3-1.51-0.45-2.23-0.45c-0.91,0-1.66,0.22-2.23,0.65
				c-0.58,0.43-0.86,1-0.86,1.69c0,0.48,0.14,0.88,0.43,1.19c0.29,0.31,0.67,0.58,1.13,0.81c0.47,0.23,1,0.43,1.59,0.59
				c0.59,0.17,1.17,0.35,1.75,0.54c2.31,0.77,3.99,1.79,5.06,3.08c1.07,1.28,1.6,2.96,1.6,5.02c0,1.39-0.23,2.65-0.7,3.78
				c-0.47,1.13-1.15,2.09-2.05,2.9s-2,1.43-3.31,1.87c-1.31,0.44-2.79,0.67-4.45,0.67c-3.43,0-6.61-1.02-9.54-3.06l3.02-5.69
				c1.06,0.94,2.1,1.63,3.13,2.09c1.03,0.46,2.05,0.68,3.06,0.68c1.15,0,2.01-0.26,2.57-0.79c0.56-0.53,0.85-1.13,0.85-1.8
				c0-0.41-0.07-0.76-0.22-1.06c-0.14-0.3-0.38-0.58-0.72-0.83c-0.34-0.25-0.77-0.49-1.31-0.7c-0.54-0.22-1.2-0.46-1.96-0.72
				c-0.91-0.29-1.81-0.61-2.68-0.96c-0.88-0.35-1.66-0.81-2.34-1.39c-0.68-0.58-1.24-1.3-1.66-2.18c-0.42-0.88-0.63-1.99-0.63-3.33
				c0-1.34,0.22-2.56,0.67-3.66c0.44-1.09,1.07-2.03,1.87-2.81c0.8-0.78,1.79-1.39,2.95-1.82c1.16-0.43,2.47-0.65,3.91-0.65
				c1.34,0,2.75,0.19,4.21,0.56s2.87,0.92,4.21,1.64L561.87,77.87z"/>
		</g>
		<g>
			<g>
				<g transform="matrix(4.16667,0,0,4.16667,-2169.96,-1062.64)">
					<path d="M615.54,281.84v3.75h-1.32v-3.75h-1.08v-1.06h3.49v1.06H615.54z"/>
				</g>
				<g transform="matrix(4.16667,0,0,4.16667,-2169.96,-1062.64)">
					<path d="M623.91,281.84h-1.57v0.8h1.48v1.06h-1.48v0.83h1.57v1.06h-2.89v-4.81h2.89V281.84z"/>
				</g>
				<g transform="matrix(4.16667,0,0,4.16667,-2169.96,-1062.65)">
					<path d="M632.87,284.62h0.29c0.33,0,0.57-0.04,0.71-0.12c0.14-0.08,0.22-0.21,0.22-0.39s-0.07-0.31-0.22-0.39
						c-0.14-0.08-0.38-0.12-0.71-0.12h-0.29V284.62z M632.87,282.67h0.24c0.41,0,0.62-0.16,0.62-0.47c0-0.31-0.21-0.47-0.62-0.47
						h-0.24V282.67z M631.55,280.78h1.97c0.47,0,0.82,0.11,1.06,0.32c0.24,0.21,0.36,0.52,0.36,0.92c0,0.24-0.05,0.44-0.14,0.6
						c-0.09,0.16-0.23,0.29-0.42,0.41c0.19,0.03,0.35,0.09,0.48,0.16c0.13,0.07,0.24,0.16,0.32,0.26c0.08,0.1,0.14,0.22,0.18,0.34
						c0.04,0.13,0.05,0.26,0.05,0.41c0,0.23-0.04,0.43-0.12,0.6c-0.08,0.17-0.2,0.32-0.35,0.44c-0.15,0.12-0.33,0.21-0.55,0.27
						c-0.22,0.06-0.46,0.09-0.73,0.09h-2.12V280.78z"/>
				</g>
				<g transform="matrix(4.16667,0,0,4.16667,-2169.96,-1062.65)">
					<path d="M637.31,282.93h0.25c0.26,0,0.46-0.05,0.6-0.15c0.14-0.1,0.21-0.25,0.21-0.44s-0.07-0.34-0.21-0.44
						c-0.14-0.1-0.34-0.15-0.6-0.15h-0.25V282.93z M640.21,285.59h-1.64l-1.26-1.85v1.85h-1.32v-4.81h2.05
						c0.28,0,0.53,0.04,0.74,0.12c0.21,0.08,0.38,0.19,0.52,0.32c0.14,0.14,0.24,0.29,0.31,0.47c0.07,0.18,0.1,0.37,0.1,0.57
						c0,0.37-0.09,0.66-0.28,0.89c-0.19,0.23-0.46,0.38-0.82,0.46L640.21,285.59z"/>
				</g>
				<g transform="matrix(4.16667,0,0,4.16667,-2169.96,-1062.65)">
					<rect x="640.52" y="280.78" class="st3" width="1.32" height="4.81"/>
				</g>
				<g transform="matrix(4.16667,0,0,4.16667,-2169.96,-1062.65)">
					<path d="M644.02,284.53h0.3c0.23,0,0.43-0.03,0.61-0.1c0.18-0.07,0.33-0.16,0.45-0.28c0.12-0.12,0.22-0.26,0.28-0.42
						c0.06-0.16,0.1-0.34,0.1-0.54c0-0.19-0.03-0.37-0.1-0.54c-0.07-0.17-0.16-0.31-0.29-0.43c-0.12-0.12-0.27-0.21-0.45-0.28
						c-0.18-0.07-0.38-0.1-0.61-0.1h-0.3V284.53z M642.7,280.78h1.95c0.35,0,0.67,0.07,0.97,0.2c0.3,0.13,0.57,0.31,0.79,0.53
						c0.23,0.22,0.4,0.47,0.53,0.77c0.13,0.29,0.2,0.6,0.2,0.92c0,0.31-0.06,0.62-0.19,0.91c-0.13,0.29-0.31,0.55-0.53,0.77
						c-0.23,0.22-0.49,0.4-0.79,0.53c-0.3,0.13-0.63,0.2-0.98,0.2h-1.95V280.78z"/>
				</g>
				<g transform="matrix(4.16667,0,0,4.16667,-2169.96,-1062.65)">
					<path d="M650.21,282.9h2.62c0,0.26-0.01,0.49-0.03,0.7c-0.02,0.21-0.07,0.4-0.13,0.58c-0.09,0.25-0.22,0.47-0.38,0.67
						c-0.16,0.19-0.35,0.36-0.57,0.48c-0.22,0.13-0.46,0.23-0.72,0.3c-0.26,0.07-0.53,0.1-0.82,0.1c-0.39,0-0.76-0.06-1.08-0.18
						c-0.33-0.12-0.6-0.3-0.84-0.52c-0.23-0.22-0.42-0.49-0.55-0.8c-0.13-0.31-0.2-0.66-0.2-1.04c0-0.37,0.06-0.72,0.19-1.03
						c0.13-0.31,0.31-0.58,0.55-0.8c0.24-0.22,0.52-0.39,0.85-0.52c0.33-0.12,0.7-0.18,1.11-0.18c0.53,0,0.99,0.11,1.39,0.33
						c0.4,0.22,0.72,0.55,0.95,1.01l-1.25,0.49c-0.12-0.26-0.27-0.45-0.45-0.57c-0.19-0.11-0.4-0.17-0.64-0.17
						c-0.2,0-0.38,0.04-0.54,0.11c-0.16,0.07-0.3,0.17-0.41,0.3c-0.11,0.13-0.2,0.29-0.27,0.47c-0.06,0.18-0.1,0.39-0.1,0.61
						c0,0.2,0.03,0.39,0.08,0.57c0.06,0.17,0.14,0.33,0.25,0.45c0.11,0.13,0.25,0.23,0.42,0.3c0.17,0.07,0.36,0.11,0.58,0.11
						c0.13,0,0.26-0.01,0.38-0.04c0.12-0.03,0.23-0.07,0.33-0.13c0.1-0.06,0.18-0.14,0.24-0.24c0.06-0.1,0.11-0.22,0.13-0.36h-1.08
						V282.9z"/>
				</g>
				<g transform="matrix(4.16667,0,0,4.16667,-2169.96,-1062.64)">
					<path d="M656.31,281.84h-1.57v0.8h1.48v1.06h-1.48v0.83h1.57v1.06h-2.89v-4.81h2.89V281.84z"/>
				</g>
				<g transform="matrix(4.16667,0,0,4.16667,-2169.96,-1063.01)">
					<path class="st2" d="M629.64,280.86h-3.81c-0.35,0-0.64,0.27-0.64,0.6v3.61c0,0.33,0.28,0.6,0.64,0.6v-2.48h3.81v2.48
						c0.35,0,0.64-0.27,0.64-0.6v-3.61C630.27,281.13,629.99,280.86,629.64,280.86 M626.94,285.68h1.59v-1.66h-1.59V285.68z"/>
				</g>
				<g transform="matrix(4.16667,0,0,4.16667,-2169.96,-863.82)">
					<path d="M620.19,235.39v2.48h-1.11v-1.66h-1.59v1.66h-1.11v-2.48H620.19z"/>
				</g>
				<g transform="matrix(4.16667,0,0,4.16667,-2169.96,-863.82)">
					<path class="st0" d="M629.64,235.39v2.48h-1.11v-1.66h-1.59v1.66h-1.11v-2.48H629.64z"/>
				</g>
			</g>
			<g>
				<path d="M321.75,107.35h3.16c0.82,0,1.47,0.2,1.94,0.6c0.47,0.4,0.71,0.95,0.71,1.65c0,0.71-0.24,1.26-0.71,1.67
					c-0.47,0.4-1.12,0.61-1.94,0.61h-2.45v3.7h-0.71V107.35z M324.86,111.25c0.65,0,1.14-0.14,1.47-0.43
					c0.33-0.28,0.5-0.69,0.5-1.22c0-0.52-0.17-0.93-0.5-1.21c-0.33-0.29-0.82-0.43-1.47-0.43h-2.4v3.29H324.86z"/>
				<path d="M330.48,115.16c-0.55-0.34-0.98-0.82-1.27-1.46c-0.3-0.63-0.45-1.38-0.45-2.24c0-0.86,0.15-1.61,0.44-2.24
					c0.29-0.63,0.71-1.12,1.27-1.46c0.55-0.34,1.2-0.51,1.96-0.51c0.75,0,1.41,0.17,1.96,0.51c0.56,0.34,0.98,0.82,1.27,1.45
					c0.29,0.63,0.44,1.37,0.44,2.23c0,0.86-0.15,1.61-0.44,2.25c-0.3,0.64-0.72,1.12-1.27,1.46c-0.55,0.34-1.2,0.51-1.96,0.51
					C331.68,115.67,331.03,115.5,330.48,115.16z M334.58,114.1c0.51-0.62,0.77-1.51,0.77-2.64s-0.26-2.02-0.76-2.63
					c-0.51-0.62-1.23-0.92-2.16-0.92c-0.92,0-1.64,0.31-2.15,0.93c-0.51,0.62-0.77,1.5-0.77,2.63c0,1.13,0.26,2.01,0.77,2.64
					c0.51,0.63,1.23,0.94,2.15,0.94C333.35,115.03,334.07,114.72,334.58,114.1z"/>
				<path d="M349.04,107.35l-2.86,8.22h-0.62l-2.47-7.08l-2.48,7.08h-0.61l-2.87-8.22h0.72l2.47,7.23l2.49-7.23l0.57,0.01l2.48,7.2
					l2.47-7.21H349.04z"/>
				<path d="M350.53,107.35h5.07v0.61h-4.37v3.12h4.13v0.64h-4.13v3.25h4.37v0.61h-5.07V107.35z"/>
				<path d="M363.61,115.57h-0.74l-1.03-2.74c-0.13-0.37-0.31-0.62-0.54-0.75c-0.23-0.13-0.57-0.19-1.01-0.19H358v3.67h-0.72v-8.22
					h3.18c0.85,0,1.52,0.19,1.99,0.58c0.47,0.39,0.7,0.95,0.7,1.67c0,0.53-0.14,0.98-0.42,1.34c-0.28,0.36-0.68,0.62-1.21,0.76
					c0.24,0.04,0.44,0.14,0.61,0.3c0.17,0.16,0.31,0.4,0.43,0.72L363.61,115.57z M360.42,111.28c1.35,0,2.02-0.56,2.02-1.69
					c0-1.09-0.67-1.63-2.02-1.63h-2.43v3.32H360.42z"/>
				<path d="M365.23,107.35h5.07v0.61h-4.37v3.12h4.14v0.64h-4.14v3.25h4.37v0.61h-5.07V107.35z"/>
				<path d="M371.99,107.35h2.64c1.31,0,2.32,0.35,3.03,1.06c0.71,0.71,1.06,1.72,1.06,3.04s-0.36,2.33-1.07,3.05
					c-0.71,0.72-1.72,1.07-3.02,1.07h-2.64V107.35z M374.6,114.95c1.12,0,1.96-0.29,2.52-0.88c0.56-0.59,0.84-1.46,0.84-2.62
					c0-2.32-1.12-3.48-3.36-3.48h-1.9v6.98H374.6z"/>
				<path d="M371.6,123.8c0.26,0.34,0.39,0.77,0.39,1.29c0,0.72-0.24,1.27-0.7,1.65c-0.47,0.38-1.14,0.58-2,0.58H366v-8.22h3.18
					c0.84,0,1.49,0.19,1.94,0.56s0.68,0.91,0.68,1.6c0,0.45-0.11,0.83-0.34,1.14c-0.23,0.32-0.54,0.55-0.95,0.7
					C370.97,123.22,371.34,123.45,371.6,123.8z M366.7,122.82h2.37c0.66,0,1.16-0.13,1.5-0.4c0.34-0.27,0.51-0.66,0.51-1.18
					c0-1.02-0.67-1.54-2.01-1.54h-2.37V122.82z M370.77,126.31c0.33-0.26,0.49-0.66,0.49-1.2c0-1.1-0.67-1.65-2.02-1.65h-2.54v3.25
					h2.54C369.93,126.7,370.44,126.57,370.77,126.31z"/>
				<path d="M376.37,123.93v3.38h-0.72v-3.41l-3.18-4.82h0.83l2.71,4.19l2.71-4.19h0.81L376.37,123.93z"/>
			</g>
		</g>
	</g>
</g>
</svg>
